<svg width="112" height="80" viewBox="0 0 112 80" fill="none" xmlns="http://www.w3.org/2000/svg">
<path fill-rule="evenodd" clip-rule="evenodd" d="M40 20C38.9391 20 37.9217 20.4214 37.1716 21.1716C36.4214 21.9217 36 22.9391 36 24V56C36 57.0609 36.4214 58.0783 37.1716 58.8284C37.9217 59.5786 38.9391 60 40 60H72C73.0609 60 74.0783 59.5786 74.8284 58.8284C75.5786 58.0783 76 57.0609 76 56V24C76 22.9391 75.5786 21.9217 74.8284 21.1716C74.0783 20.4214 73.0609 20 72 20H40ZM54.618 42.706H46.974C46.406 42.706 46 42.313 46 41.786C46 41.488 46.122 41.217 46.352 40.92L58.649 25.565C59.556 24.415 61.003 25.159 60.475 26.553L56.444 37.51H64.088C64.656 37.51 65.062 37.916 65.062 38.43C65.062 38.74 64.94 39.011 64.71 39.296L52.413 54.665C51.506 55.801 50.059 55.057 50.586 53.664L54.618 42.706Z" fill="white"/>
</svg>
