<svg width="1920" height="763" viewBox="0 0 1920 763" fill="none" xmlns="http://www.w3.org/2000/svg">
<g clip-path="url(#clip0_1_625)">
<g opacity="0.89">
<path style="mix-blend-mode:lighten" fill-rule="evenodd" clip-rule="evenodd" d="M1233.18 0L1233.61 0.186L1460.09 98.246L1460.52 98.433L1460.95 98.619L1687 196.494L1687.44 196.68L1687.87 196.866L1913.05 294.369L1913.48 294.183L1913.92 293.997L1914.35 294.183L2141.25 392.43L2141.68 392.616L2141.25 392.802L1914.35 491.049L1913.92 491.235L2139.69 588.991L2140.12 589.177L2140.55 589.362L2140.83 589.482L2367.31 491.421L2367.73 491.235L2368.17 491.421L2594.65 589.482L2595.08 589.668L2595.51 589.854L2821.56 687.729L2821.99 687.915L2822.43 688.101L3048.91 786.162L3049.33 786.348L3048.91 786.534L2821.99 884.781L2821.56 884.967L2821.13 884.781L2820.43 884.476L2594.37 982.35L2593.95 982.536L2593.52 982.722L2367.04 1080.78L2366.6 1080.97L2366.17 1080.78L2365.87 1080.65L2139.53 1178.64L2139.11 1178.83L2138.68 1178.64L2137.97 1178.34L1911.92 1276.21L1911.49 1276.4L1911.07 1276.58L1684.59 1374.65L1684.15 1374.83L1683.72 1374.65L1457.24 1276.58L1456.81 1276.4L1456.39 1276.21L1230.33 1178.34L1229.9 1178.15L1229.47 1177.97L1003.42 1080.09L1002.99 1079.9L1002.56 1079.72L776.505 981.843L776.076 981.657L775.645 981.471L549.593 883.596L549.164 883.41L548.735 883.224L322.681 785.349L322.252 785.163L321.823 784.977L95.7693 687.102L95.3413 686.917L94.912 686.731L-131.571 588.669L-132 588.483L-131.571 588.297L94.912 490.236L95.3413 490.05L95.7707 489.864L322.252 391.803L322.681 391.618L323.112 391.803L323.817 392.109L550.299 294.048L550.728 293.862L551.157 294.048L551.468 294.182L777.365 196.375L777.795 196.189L778.224 196.003L1004.71 97.942L1005.14 97.756L1005.57 97.942L1006.27 98.247L1232.75 0.186L1233.18 0ZM778.38 392.429L778.069 392.295L777.64 392.109L552.327 294.554L778.224 196.747L1004.28 294.622L778.38 392.429ZM1005.29 490.676L1004.98 490.542L1004.55 490.356L779.239 392.801L1005.14 294.994L1231.19 392.869L1005.29 490.676ZM1232.2 588.923L1231.89 588.789L1231.46 588.603L1006.15 491.048L1232.05 393.241L1458.09 491.115L1232.2 588.923ZM1459.12 687.17L1458.8 687.036L1458.37 686.85L1233.06 589.295L1458.96 491.488L1685.01 589.362L1459.12 687.17ZM1686.03 785.417L1685.72 785.283L1685.28 785.097L1459.97 687.542L1685.87 589.734L1911.92 687.609L1686.03 785.417ZM1912.93 883.664L1912.63 883.53L1912.2 883.344L1686.88 785.789L1912.79 687.981L2138.84 785.856L1912.93 883.664ZM2139.85 981.911L2139.53 981.777L2139.11 981.591L1913.8 884.036L2139.69 786.229L2365.75 884.104L2139.85 981.911ZM2366.76 1080.16L2366.45 1080.02L2140.71 982.283L2366.6 884.475L2592.65 982.35L2366.76 1080.16ZM550.573 294.673L324.676 392.481L549.593 489.864L550.023 490.05L550.381 490.206L550.452 490.236L550.728 490.356L776.625 392.548L550.884 294.808L550.573 294.673ZM777.484 392.92L551.587 490.728L776.505 588.112L776.935 588.298L777.364 588.483L777.64 588.603L1003.54 490.795L778.224 393.241L777.795 393.055L777.484 392.92ZM1004.4 491.167L778.499 588.975L1003.42 686.359L1003.85 686.545L1004.28 686.731L1004.55 686.85L1230.45 589.042L1005.14 491.488L1004.71 491.301L1004.4 491.167ZM1231.31 589.414L1005.41 687.222L1230.33 784.605L1230.76 784.792L1231.19 784.977L1231.46 785.097L1457.36 687.289L1232.05 589.734L1231.62 589.548L1231.31 589.414ZM1458.21 687.661L1232.32 785.469L1457.24 882.853L1457.67 883.038L1458.09 883.224L1458.37 883.344L1684.27 785.536L1458.96 687.981L1458.53 687.795L1458.21 687.661ZM1685.13 785.908L1459.23 883.716L1684.15 981.099L1684.59 981.285L1685.01 981.472L1685.28 981.591L1911.19 883.783L1685.87 786.228L1685.44 786.042L1685.13 785.908ZM1912.04 884.155L1686.15 981.963L1911.07 1079.35L1911.49 1079.53L1911.92 1079.72L1912.2 1079.84L2138.09 982.03L1912.79 884.475L1912.35 884.289L1912.04 884.155ZM2138.95 982.402L1913.05 1080.21L2138.4 1177.78L2138.84 1177.97L2139.11 1178.08L2365 1080.28L2139.69 982.722L2139.27 982.536L2138.95 982.402ZM2819.57 884.104L2593.52 981.979L2367.47 884.104L2593.52 786.229L2593.79 786.348L2594.23 786.534L2594.65 786.72L2819.57 884.104ZM2366.6 883.731L2592.65 785.856L2367.73 688.473L2367.31 688.287L2366.88 688.101L2366.6 687.982L2140.55 785.856L2366.6 883.731ZM2593.52 785.485L2593.95 785.67L2594.37 785.856L2594.65 785.976L2820.71 688.101L2594.65 590.226L2368.6 688.101L2593.52 785.485ZM2595.51 786.348L2820.85 883.918L2821.29 884.104L2821.56 884.223L3047.61 786.348L2821.56 688.473L2595.51 786.348ZM2139.69 785.485L1913.64 687.609L2139.69 589.735L2139.97 589.854L2140.4 590.04L2365.75 687.61L2139.69 785.485ZM2593.79 589.854L2367.73 687.729L2367.47 687.61L2367.04 687.424L2366.6 687.237L2141.69 589.854L2367.73 491.979L2593.79 589.854ZM2138.84 589.362L1912.79 687.238L1686.73 589.362L1912.79 491.487L2138.84 589.362ZM1685.87 588.991L1459.81 491.116L1639.63 413.261L1685.87 393.241L1686.57 393.546L1687 393.732L1911.92 491.116L1685.87 588.991ZM1458.96 490.744L1232.91 392.869L1458.96 294.994L1459.24 295.113L1459.67 295.299L1460.09 295.485L1685.01 392.869L1458.96 490.744ZM1686.57 392.43L1686.15 392.616L1685.87 392.497L1460.95 295.113L1687 197.238L1912.2 294.741L1686.57 392.43ZM1688.72 392.988L1913.92 490.491L2139.97 392.616L1914.77 295.113L1914.35 295.299L1688.72 392.988ZM1231.19 196.375L1005.14 294.25L779.084 196.375L1005.14 98.5L1005.41 98.619L1005.84 98.805L1231.19 196.375ZM1007.13 98.619L1232.05 196.003L1232.48 196.189L1232.91 196.375L1233.18 196.494L1459.24 98.619L1233.18 0.744L1007.13 98.619ZM1232.05 196.747L1005.99 294.622L1232.05 392.496L1409.8 315.533L1458.09 294.622L1233.18 197.238L1232.75 197.052L1232.32 196.866L1232.05 196.747ZM1234.04 196.866L1460.09 98.991L1686.15 196.866L1460.09 294.741L1459.81 294.622L1459.39 294.436L1458.96 294.25L1234.04 196.866ZM1683.29 1177.97L1457.24 1275.84L1231.19 1177.97L1457.24 1080.09L1683.29 1177.97ZM1911.07 1275.84L1685.01 1177.97L1911.07 1080.09L1911.33 1080.21L1911.76 1080.4H1911.77L1912.2 1080.58L2137.12 1177.97L1911.07 1275.84ZM1458.09 1079.72L1684.15 1177.59L1910.2 1079.72L1685.28 982.335L1684.85 982.149L1684.43 981.963L1684.15 981.843L1458.09 1079.72ZM1684.15 1374.09L1458.09 1276.21L1684.15 1178.34L1910.2 1276.21L1684.15 1374.09ZM1457.24 1079.35L1683.29 981.472L1458.37 884.088L1457.95 883.902L1457.52 883.716L1457.24 883.596L1231.19 981.471L1457.24 1079.35ZM1230.33 1177.59L1456.39 1079.72L1230.33 981.843L1004.28 1079.72L1230.33 1177.59ZM1229.47 981.471L1003.42 1079.35L777.364 981.471L1003.42 883.596L1229.47 981.471ZM1004.28 883.224L1230.33 981.099L1456.39 883.224L1231.46 785.841L1231.03 785.655L1230.6 785.469L1230.33 785.349L1004.28 883.224ZM1003.42 882.852L1229.47 784.977L1004.55 687.594L1004.12 687.408L1003.69 687.222L1003.42 687.103L930.325 718.749L777.364 784.977L1003.42 882.852ZM776.505 981.099L1002.56 883.224L776.505 785.349L550.453 883.224L776.505 981.099ZM775.645 784.977L549.593 882.852L323.541 784.977L549.593 687.102L775.645 784.977ZM550.453 686.731L776.505 784.606L1002.56 686.731L777.64 589.347L777.209 589.161L776.78 588.975L776.505 588.855L550.453 686.731ZM96.6293 686.731L322.681 784.606L548.735 686.731L322.681 588.855L96.6293 686.731ZM322.681 588.112L548.735 490.237L323.387 392.667L322.957 392.481L322.681 392.361L96.6293 490.236L322.681 588.112ZM95.7707 686.358L321.823 588.483L95.7693 490.608L-130.281 588.483L95.7707 686.358ZM323.541 588.483L549.593 490.608L549.869 490.728L550.299 490.914L550.728 491.1L775.645 588.484L549.593 686.359V686.358L323.541 588.483Z" fill="url(#paint0_linear_1_625)"/>
<path opacity="0.12" d="M1262.32 470.379C1251.33 465.619 1233.34 465.619 1222.34 470.379C1211.35 475.139 1211.35 482.929 1222.34 487.69C1233.34 492.45 1251.33 492.45 1262.32 487.69C1273.32 482.929 1273.32 475.139 1262.32 470.379ZM1220.06 479.034C1220.06 476.438 1222.48 474.027 1226.34 472.357L1226.48 485.773C1222.63 483.98 1220.06 481.631 1220.06 479.034ZM1230.48 487.133V470.936C1239.05 468.586 1250.61 469.019 1258.04 472.234C1263.32 474.521 1265.32 477.612 1264.32 480.518L1260.32 480.394C1261.18 477.921 1259.47 475.325 1255.18 473.47C1249.61 471.059 1241.33 470.565 1234.48 471.925V486.144C1240.05 487.319 1246.76 487.133 1252.04 485.711L1245.19 482.744L1248.04 481.507L1258.04 485.835C1250.61 489.05 1239.05 489.482 1230.48 487.133Z" fill="white"/>
<path opacity="0.2" d="M1689.68 670.405L1707.92 678.303L1706.48 678.931L1689.91 671.757L1678.99 676.482L1694.57 683.228L1693.12 683.856L1677.55 677.11L1665.56 682.297L1682.32 689.553L1680.87 690.181L1662.44 682.2L1689.68 670.405ZM1709.56 679.011L1711.49 679.85L1708.11 688.756L1728.87 687.37L1756.03 685.951L1707.95 689.778L1704.05 700.218L1702.04 699.346L1705.59 689.846L1683.61 691.366L1681.63 690.51L1705.81 688.857L1709.56 679.011ZM1730.57 689.363L1732.01 688.736L1752.8 697.736L1751.36 698.364L1741.77 694.217L1715.99 705.385L1714.32 704.661L1740.11 693.493L1730.57 689.363ZM1666.87 660.524L1668.95 661.429L1654.64 692.583L1658.63 680.547L1666.55 662.173L1641.29 673.044L1639.61 672.32L1666.87 660.524ZM1727.28 708.641C1726.95 708.493 1726.95 708.268 1727.29 708.119C1727.48 708.046 1727.68 708.007 1727.89 708.006C1728.1 708.006 1728.31 708.044 1728.49 708.116C1728.84 708.265 1728.83 708.489 1728.49 708.637C1728.31 708.711 1728.1 708.75 1727.89 708.751C1727.68 708.751 1727.47 708.714 1727.28 708.641ZM1730.52 708.661L1731.41 709.049C1730.95 709.264 1730.97 709.558 1731.49 709.783C1732.08 710.035 1732.76 710.026 1733.41 709.742L1737.56 707.944L1738.48 708.338L1734.32 710.139C1733.13 710.65 1731.77 710.649 1730.64 710.159C1729.57 709.699 1729.51 709.099 1730.52 708.661ZM1735.37 710.714L1736.27 711.105C1735.79 711.38 1735.99 711.77 1736.77 712.11C1737.49 712.427 1738.41 712.495 1738.93 712.269C1739.39 712.075 1739.31 711.811 1738.72 711.395L1738.15 710.989C1737.33 710.421 1737.36 709.99 1738.23 709.616C1739.27 709.163 1740.83 709.231 1742.11 709.786C1743.29 710.302 1743.47 710.98 1742.53 711.431L1741.64 711.048C1742.11 710.776 1741.97 710.425 1741.28 710.13C1740.56 709.818 1739.73 709.76 1739.21 709.989C1738.79 710.171 1738.85 710.409 1739.44 710.817L1739.93 711.166C1740.85 711.809 1740.87 712.235 1739.97 712.618C1738.85 713.105 1737.28 713.033 1735.89 712.431C1734.59 711.867 1734.39 711.198 1735.37 710.714Z" fill="white"/>
<g opacity="0.2">
<path fill-rule="evenodd" clip-rule="evenodd" d="M1703.4 464.343L1708.99 461.928L1724.11 475.731L1689.45 487.631L1658.51 483.785L1677.84 475.414L1684.04 478.102L1679.63 482.572L1685.11 484.943L1703.4 464.343ZM1682.37 473.447L1692.71 468.977L1686.67 475.304L1682.37 473.447Z" fill="white"/>
<path fill-rule="evenodd" clip-rule="evenodd" d="M1703.41 464.344L1708.99 461.929L1677.11 455.383L1649.63 470.388L1658.51 483.786L1677.84 475.414L1671.57 472.704L1661.25 474.617L1655.77 472.245L1703.41 464.344ZM1692.71 468.978L1678.09 471.59L1682.39 473.447L1692.71 468.978Z" fill="white" fill-opacity="0.6"/>
</g>
<g opacity="0.2">
<path opacity="0.9" fill-rule="evenodd" clip-rule="evenodd" d="M1447.49 391.819L1464.28 364.509L1473.43 368.468L1463.47 384.904L1501.32 380.544L1510.57 384.553L1447.49 391.819Z" fill="white"/>
<path opacity="0.9" d="M1465.01 384.238L1475.08 367.752L1483.64 371.46L1479.83 377.824L1494.4 376.12L1502.97 379.828L1465.01 384.238Z" fill="white" fill-opacity="0.4"/>
</g>
<path opacity="0.21" d="M1910.55 575.629L1930.51 551.598C1931 550.994 1930.69 550.32 1929.71 549.844C1928.72 549.359 1927.21 549.151 1925.76 549.302L1875.28 554.473C1873.72 554.63 1872.51 555.165 1872.17 555.844L1867.01 566.241C1866.61 567.045 1867.49 567.865 1869.16 568.256L1904.59 576.593C1905.67 576.848 1906.95 576.889 1908.09 576.704C1909.24 576.519 1910.13 576.126 1910.55 575.629ZM1904.95 574.607L1874.88 567.532C1873.97 567.316 1873.91 566.757 1874.76 566.511L1922.75 552.915C1923.64 552.661 1924.79 553.054 1924.43 553.492L1907.17 574.245C1907.03 574.431 1906.68 574.579 1906.25 574.649C1905.83 574.718 1905.35 574.703 1904.95 574.607Z" fill="white"/>
<path opacity="0.3" d="M1498.75 594.997C1498.37 594.669 1497.99 594.35 1497.59 594.039C1498.08 593.912 1498.55 593.784 1499 593.655C1506.45 591.53 1510.6 589.013 1509.4 587.072C1508.24 585.211 1502.15 583.99 1493.72 583.738C1492.92 583.713 1492.08 583.698 1491.23 583.691C1491.22 583.45 1491.2 583.209 1491.16 582.97C1490.63 579.112 1487.67 576.3 1483.19 575.782C1478.88 575.285 1473.4 576.963 1468.68 579.996C1468.23 580.289 1467.79 580.595 1467.33 580.913C1466.48 580.705 1465.63 580.513 1464.8 580.339C1457.33 578.778 1450.77 578.557 1447.64 579.915C1444.4 581.317 1444.95 584.366 1448.75 587.714C1449.04 587.978 1449.36 588.246 1449.71 588.517C1448.92 588.724 1448.16 588.934 1447.44 589.147C1440.59 591.166 1436.87 593.515 1438.03 595.369C1439.21 597.284 1445.59 598.603 1454.17 598.853C1454.85 598.873 1455.55 598.885 1456.27 598.89C1456.28 599.291 1456.33 599.682 1456.39 600.06C1457.01 603.638 1459.85 606.205 1464.13 606.7C1468.56 607.211 1474.39 605.479 1479.17 602.381C1479.55 602.144 1479.91 601.897 1480.27 601.64C1480.69 601.741 1481.12 601.838 1481.53 601.929C1489.51 603.664 1496.61 603.962 1499.91 602.541C1503.05 601.179 1502.44 598.282 1498.75 594.997ZM1482.96 600.708C1482.57 600.625 1482.19 600.538 1481.8 600.447C1483.29 599.205 1484.62 597.861 1485.77 596.435C1489.07 595.914 1492.12 595.334 1494.84 594.711C1495.23 595.01 1495.57 595.305 1495.91 595.596C1499.08 598.411 1499.56 600.753 1497.67 601.575C1495.65 602.449 1489.84 602.205 1482.96 600.708ZM1476.56 601.62C1474.44 602.99 1472.12 604.057 1469.91 604.715C1467.92 605.307 1466.17 605.52 1464.96 605.379C1462.35 605.078 1460.07 603.017 1459.55 599.958C1459.48 599.597 1459.44 599.234 1459.43 598.87C1462.51 598.81 1465.85 598.637 1469.37 598.358C1472.03 599.328 1474.76 600.193 1477.53 600.95C1477.21 601.183 1476.88 601.406 1476.56 601.62ZM1444.87 596.542C1442.69 596.091 1441.4 595.544 1441.07 595.015C1440.37 593.889 1443.36 592.004 1449.21 590.277C1449.88 590.079 1450.59 589.884 1451.33 589.691C1453 590.823 1455.03 591.996 1457.36 593.181C1456.79 594.594 1456.43 596.05 1456.29 597.523C1455.64 597.518 1455 597.507 1454.39 597.489C1450.59 597.379 1447.29 597.043 1444.87 596.542ZM1451.57 587.112C1449.89 585.632 1448.93 584.23 1448.72 583.071C1448.53 582.029 1448.99 581.269 1449.88 580.882C1451.77 580.058 1457.04 580.235 1463.43 581.57C1464.2 581.731 1464.99 581.91 1465.79 582.103C1464.29 583.334 1462.93 584.66 1461.73 586.064C1458.61 586.558 1455.52 587.152 1452.47 587.845C1452.15 587.597 1451.85 587.353 1451.57 587.112ZM1471.31 580.759C1475.35 578.16 1479.77 576.804 1482.37 577.103C1485.13 577.422 1487.56 579.72 1488.01 583.051C1488.04 583.264 1488.05 583.482 1488.07 583.704C1484.74 583.76 1481.42 583.912 1478.11 584.161C1475.48 583.213 1472.79 582.362 1470.05 581.611C1470.47 581.316 1470.88 581.031 1471.31 580.759ZM1488.28 592.929C1488.65 592.318 1489 591.711 1489.31 591.109C1490.76 591.922 1492.08 592.735 1493.24 593.533C1491.35 593.963 1489.27 594.373 1487.07 594.757C1487.49 594.162 1487.89 593.552 1488.28 592.929ZM1488.04 585.072C1487.96 586.001 1487.73 586.987 1487.4 588.011C1485.39 587.056 1483.33 586.163 1481.23 585.336C1483.59 585.196 1485.87 585.108 1488.04 585.072ZM1469.81 584.95C1468.41 585.114 1467.01 585.292 1465.64 585.481C1466.53 584.532 1467.49 583.635 1468.51 582.804C1470.33 583.305 1472.19 583.876 1474.05 584.503C1472.65 584.636 1471.24 584.785 1469.81 584.95ZM1458.13 591.44C1456.73 590.688 1455.38 589.88 1454.09 589.02C1456.18 588.547 1458.28 588.125 1460.4 587.755C1459.96 588.349 1459.55 588.954 1459.17 589.568C1458.79 590.193 1458.44 590.818 1458.13 591.44ZM1459.45 597.501C1459.55 596.548 1459.75 595.545 1460.08 594.51C1462.11 595.459 1464.18 596.354 1466.29 597.195C1463.89 597.353 1461.61 597.456 1459.45 597.501ZM1481.92 597.004C1481.03 597.996 1480.07 598.918 1479.08 599.754C1477.15 599.228 1475.24 598.644 1473.37 598.003C1474.77 597.866 1476.19 597.714 1477.63 597.547C1479.09 597.378 1480.52 597.196 1481.92 597.004ZM1476.81 596.227C1474.57 596.486 1472.39 596.708 1470.27 596.892C1466.98 595.661 1463.79 594.288 1460.72 592.78C1461.13 591.836 1461.63 590.878 1462.23 589.92C1462.81 588.964 1463.48 588.031 1464.2 587.131C1466.28 586.815 1468.44 586.526 1470.64 586.27C1472.84 586.013 1475.04 585.797 1477.2 585.621C1480.5 586.835 1483.68 588.214 1486.73 589.746C1486.3 590.709 1485.8 591.653 1485.23 592.576C1484.63 593.544 1483.99 594.477 1483.29 595.367C1481.21 595.679 1479.04 595.967 1476.81 596.227ZM1506.35 587.427C1507.09 588.621 1503.69 590.678 1497.27 592.513C1496.85 592.63 1496.43 592.746 1495.99 592.861C1494.32 591.706 1492.33 590.525 1490.11 589.358C1490.72 587.851 1491.08 586.402 1491.2 585.058C1491.99 585.065 1492.76 585.079 1493.51 585.101C1500.72 585.318 1505.65 586.305 1506.35 587.427ZM1478.44 589.208C1481.01 590.323 1481.01 592.133 1478.44 593.249C1475.87 594.364 1471.68 594.364 1469.11 593.249C1466.53 592.133 1466.53 590.324 1469.11 589.208C1471.68 588.092 1475.87 588.092 1478.44 589.208Z" fill="white"/>
<g opacity="0.1">
<path fill-rule="evenodd" clip-rule="evenodd" d="M1218.42 690.693L1218.53 690.552C1218.74 690.272 1219.17 690.084 1219.82 689.897L1208.15 684.842L1256.15 679.038L1250.31 687.838L1254.42 688.118L1260.25 679.318C1260.36 679.178 1260.8 678.242 1259.39 677.633C1258.74 677.353 1257.55 677.025 1255.39 677.306L1206.85 683.157C1206.42 683.25 1204.26 683.531 1203.71 684.327C1203.5 684.795 1203.5 685.357 1205.01 686.012L1219.71 692.378C1218.2 691.723 1218.09 691.114 1218.42 690.693Z" fill="white" fill-opacity="0.6"/>
<path fill-rule="evenodd" clip-rule="evenodd" d="M1254.53 703.894L1265.77 686.856C1265.77 686.669 1266.42 685.733 1265.01 685.124C1264.37 684.843 1263.07 684.562 1261.01 684.796L1256.15 685.311L1250.31 687.839L1261.77 686.528L1250.85 703.332L1245.55 701.039C1245.13 701.3 1244.52 701.496 1243.83 701.6H1243.61C1241.77 701.834 1240.04 701.179 1239.83 701.085L1248.04 704.643C1248.37 704.783 1249.99 705.392 1251.93 705.205C1252.8 705.111 1253.99 704.783 1254.53 703.894Z" fill="white" fill-opacity="0.2"/>
<path d="M1244.04 701.786L1244.15 701.74L1244.47 701.693C1245.01 701.552 1245.55 701.412 1245.88 701.178L1246.74 700.429L1254.96 687.323L1256.26 685.357L1256.15 685.31L1251.61 685.872L1221.34 689.429L1219.61 689.804C1218.95 689.996 1218.46 690.275 1218.2 690.599C1217.99 691.067 1217.99 691.629 1219.5 692.284L1240.04 701.178C1240.37 701.318 1242.1 701.974 1244.04 701.786ZM1250.31 687.838L1242.74 699.82L1222.64 691.114L1250.31 687.838Z" fill="white"/>
</g>
<path opacity="0.1" fill-rule="evenodd" clip-rule="evenodd" d="M1000.7 565.725L1045.46 585.104L1000.7 604.483L955.941 585.104L1000.7 565.725ZM975.064 587.015C973.953 588.355 974.164 589.955 977.528 591.411C981.253 593.025 985.791 593.272 990.147 591.385L1004.51 585.168L1000.3 583.347L986 589.539C983.897 590.449 982.485 590.306 981.103 589.707C979.661 589.083 980.052 588.394 980.563 587.6L975.064 587.015H975.065H975.064ZM995.796 593.884L990.388 593.259C989.187 594.846 989.847 596.745 993.753 598.437C997.748 600.167 1002.8 600.557 1006.58 598.918C1010.1 597.396 1009.65 595.848 1007.6 593.636L1007 592.986C1005.98 591.867 1005.71 591.308 1006.97 590.762C1007.99 590.319 1009.56 590.319 1010.79 590.853C1011.99 591.373 1012.26 591.932 1011.69 592.804L1017.07 593.311C1018.12 591.659 1017.13 590.423 1014.45 589.266C1010.7 587.64 1005.89 587.64 1002.74 589.006C999.311 590.489 999.701 592.063 1001.44 593.936L1002.05 594.586C1003.13 595.783 1003.76 596.498 1002.31 597.123C1001.11 597.643 999.131 597.539 997.388 596.785C995.315 595.887 995.225 594.911 995.796 593.884Z" fill="white"/>
<g opacity="0.56">
<g opacity="0.4">
<path d="M1879.17 364.538L1957.04 398.247L1931.08 409.484L1892.16 392.629L1887.83 394.502L1870.53 387.011L1874.85 385.138L1853.23 375.774L1879.17 364.538ZM1861.88 375.774L1870.53 379.52L1883.51 373.901L1887.83 375.774L1874.85 381.393L1879.17 383.265L1896.48 375.774L1879.17 368.283L1861.88 375.774ZM1900.8 377.647L1879.17 387.011L1887.83 390.756L1892.16 388.884L1900.8 392.629L1918.11 385.138L1900.8 377.647ZM1905.13 383.265L1909.45 385.138L1900.8 388.884L1896.48 387.011L1905.13 383.265ZM1922.43 387.011L1905.13 394.502L1913.79 398.247L1926.76 392.629L1931.08 394.502L1918.11 400.12L1922.43 401.993L1935.41 396.375L1939.73 398.247L1926.76 403.866L1931.08 405.738L1948.39 398.247L1922.43 387.011Z" fill="#242424"/>
<path d="M1861.88 375.774L1870.53 379.52L1883.51 373.902L1887.83 375.774L1874.85 381.393L1879.17 383.265L1896.48 375.774L1879.17 368.283L1861.88 375.774ZM1900.8 377.647L1879.17 387.011L1887.83 390.756L1892.16 388.884L1900.8 392.629L1918.11 385.138L1900.8 377.647ZM1900.8 388.884L1896.48 387.011L1905.13 383.265L1909.45 385.138L1900.8 388.884ZM1922.43 387.011L1905.13 394.502L1913.79 398.248L1926.76 392.629L1931.08 394.502L1918.11 400.12L1922.43 401.993L1935.41 396.375L1939.73 398.248L1926.76 403.866L1931.08 405.739L1948.39 398.248L1922.43 387.011Z" fill="white"/>
</g>
</g>
</g>
</g>
<defs>
<linearGradient id="paint0_linear_1_625" x1="1409.47" y1="270.055" x2="1497.31" y2="826.082" gradientUnits="userSpaceOnUse">
<stop offset="0.063" stop-color="white" stop-opacity="0"/>
<stop offset="1" stop-color="white" stop-opacity="0.4"/>
</linearGradient>
<clipPath id="clip0_1_625">
<rect width="1920" height="763" fill="white"/>
</clipPath>
</defs>
</svg>
