<svg width="112" height="80" viewBox="0 0 112 80" fill="none" xmlns="http://www.w3.org/2000/svg">
<path d="M76.78 28.253C74.634 24.483 71.723 21.499 68.046 19.299C64.37 17.1 60.354 16 56 16C51.646 16 47.63 17.1 43.953 19.3C40.276 21.5 37.365 24.483 35.219 28.253C33.073 32.023 32 36.138 32 40.6C32 45.96 33.526 50.781 36.578 55.063C39.63 59.345 43.573 62.308 48.406 63.952C48.968 64.059 49.385 63.984 49.656 63.728C49.926 63.472 50.062 63.151 50.062 62.768L50.046 61.038C50.036 59.948 50.03 58.998 50.03 58.187L49.312 58.314C48.853 58.401 48.275 58.437 47.577 58.427C46.8479 58.4135 46.1213 58.3382 45.405 58.202C44.6397 58.0567 43.9214 57.7272 43.312 57.242C42.6656 56.7389 42.1863 56.0523 41.937 55.272L41.624 54.535C41.416 54.045 41.088 53.499 40.64 52.902C40.192 52.304 39.74 51.898 39.28 51.685L39.062 51.525C38.9116 51.4132 38.7752 51.2836 38.656 51.139C38.5404 51.0046 38.4456 50.8536 38.375 50.691C38.312 50.541 38.365 50.418 38.531 50.321C38.698 50.225 39 50.179 39.437 50.179L40.062 50.274C40.479 50.36 40.994 50.616 41.609 51.044C42.223 51.47 42.729 52.025 43.124 52.708C43.604 53.584 44.181 54.251 44.859 54.711C45.536 55.17 46.219 55.399 46.906 55.399C47.593 55.399 48.186 55.346 48.686 55.239C49.186 55.133 49.656 54.972 50.093 54.759C50.28 53.327 50.791 52.228 51.623 51.459C50.5423 51.3501 49.4717 51.1572 48.421 50.882C47.473 50.626 46.494 50.21 45.484 49.632C44.5125 49.0893 43.6575 48.3604 42.968 47.487C42.301 46.632 41.754 45.511 41.328 44.123C40.901 42.735 40.687 41.133 40.687 39.318C40.687 36.734 41.51 34.534 43.156 32.718C42.385 30.776 42.458 28.598 43.374 26.185C43.979 25.992 44.874 26.137 46.062 26.617C47.25 27.097 48.119 27.509 48.672 27.85C49.224 28.192 49.666 28.48 50 28.715C51.9512 28.1583 53.9709 27.8782 56 27.883C58.062 27.883 60.062 28.16 62 28.715L63.188 27.947C64 27.434 64.958 26.964 66.062 26.537C67.166 26.11 68.01 25.993 68.594 26.185C69.531 28.598 69.614 30.776 68.844 32.719C70.489 34.535 71.313 36.735 71.313 39.319C71.313 41.134 71.098 42.74 70.672 44.139C70.245 45.539 69.693 46.659 69.016 47.503C68.3148 48.3668 67.4559 49.0896 66.485 49.633C65.475 50.21 64.495 50.626 63.547 50.883C62.4959 51.1583 61.425 51.3512 60.344 51.46C61.427 52.42 61.969 53.937 61.969 56.008V62.766C61.969 63.15 62.099 63.471 62.359 63.727C62.62 63.983 63.031 64.058 63.594 63.951C68.428 62.307 72.37 59.344 75.422 55.061C78.474 50.783 80 45.962 80 40.6C79.999 36.138 78.925 32.022 76.78 28.253Z" fill="white"/>
</svg>
